<svg width="1108" height="1008" viewBox="0 0 1108 1008" fill="none" xmlns="http://www.w3.org/2000/svg">
<g filter="url(#filter0_d_29_2)">
<rect x="4" width="1000" height="1000" fill="black"/>
</g>
<path d="M130 755V395H430C441 395 451 397.667 460 403C469.333 408.333 476.667 415.667 482 425C487.333 434 490 444 490 455V695C490 706 487.333 716.167 482 725.5C476.667 734.5 469.333 741.667 460 747C451 752.333 441 755 430 755H130ZM190 714.5H430C435.333 714.5 439.833 712.667 443.5 709C447.5 705 449.5 700.333 449.5 695V455C449.5 449.667 447.5 445.167 443.5 441.5C439.833 437.5 435.333 435.5 430 435.5H190C184.667 435.5 180 437.5 176 441.5C172.333 445.167 170.5 449.667 170.5 455V695C170.5 700.333 172.333 705 176 709C180 712.667 184.667 714.5 190 714.5ZM666.492 755L535.492 395H578.492L683.992 684L788.992 395H837.992L943.492 684L1047.99 395H1091.99L960.992 755H925.492L813.492 447.5L701.492 755H666.492Z" fill="white"/>
<defs>
<filter id="filter0_d_29_2" x="0" y="0" width="1008" height="1008" filterUnits="userSpaceOnUse" color-interpolation-filters="sRGB">
<feFlood flood-opacity="0" result="BackgroundImageFix"/>
<feColorMatrix in="SourceAlpha" type="matrix" values="0 0 0 0 0 0 0 0 0 0 0 0 0 0 0 0 0 0 127 0" result="hardAlpha"/>
<feOffset dy="4"/>
<feGaussianBlur stdDeviation="2"/>
<feComposite in2="hardAlpha" operator="out"/>
<feColorMatrix type="matrix" values="0 0 0 0 0 0 0 0 0 0 0 0 0 0 0 0 0 0 0.25 0"/>
<feBlend mode="normal" in2="BackgroundImageFix" result="effect1_dropShadow_29_2"/>
<feBlend mode="normal" in="SourceGraphic" in2="effect1_dropShadow_29_2" result="shape"/>
</filter>
</defs>
</svg>
